<svg xmlns="http://www.w3.org/2000/svg" viewBox="216 97 1069 1069">
  <rect x="216" y="97" width="1069" height="1069" fill="#0a0a0a"/>
  <path fill="#ffffff" d="M 1049.46875 564.675781 C 1049.46875 602.902344 1049.46875 641.125 1049.46875 679.351562 C 1049.46875 685.71875 1049.285156 692.085938 1049.429688 698.453125 C 1050.082031 731.023438 1025.753906 758.1875 995.878906 765.960938 C 986.0625 768.515625 976.222656 769.515625 966.203125 770.042969 C 951.144531 770.859375 937.960938 776.574219 926.164062 785.757812 C 911.796875 796.941406 903.550781 811.65625 901.203125 829.65625 C 900.488281 835.066406 900.511719 840.574219 899.613281 845.941406 C 896.796875 862.757812 888.753906 876.71875 875.53125 887.535156 C 847.855469 910.167969 808.164062 913.023438 776.753906 890.003906 C 758.796875 876.839844 749.183594 858.71875 748.367188 836.472656 C 747.796875 821.023438 748.183594 805.535156 748.164062 790.066406 C 748.144531 760.941406 747.304688 731.800781 748.304688 702.699219 C 749.695312 662.617188 713.652344 633.390625 678.835938 633.289062 C 667.816406 633.25 657.121094 634.144531 646.734375 638.492188 C 620.9375 649.269531 605.816406 668.105469 602.59375 695.941406 C 601.753906 703.144531 601.9375 710.472656 601.9375 717.757812 C 601.878906 750.515625 601.9375 783.289062 601.898438 816.042969 C 601.898438 823.328125 601.898438 830.617188 601.632812 837.882812 C 600.570312 867.535156 584.816406 887.328125 558.632812 898.941406 C 531.570312 910.921875 505.121094 907.941406 480.671875 891.433594 C 462.265625 878.984375 451.550781 861.65625 451.039062 838.902344 C 450.835938 829.800781 450.835938 820.699219 450.816406 811.59375 C 450.796875 780.65625 450.816406 749.71875 450.816406 718.757812 C 450.816406 712.390625 451.039062 706.023438 450.898438 699.65625 C 450.0625 664.25 479.222656 638.554688 505.386719 633.25 C 516.0625 631.085938 526.980469 630.125 537.796875 628.738281 C 552.695312 626.839844 565.777344 620.960938 576.917969 610.921875 C 591.164062 598.105469 599.144531 582.1875 599.386719 562.941406 C 599.695312 538.371094 599.511719 513.800781 599.550781 489.226562 C 599.550781 469.207031 599.59375 449.1875 599.59375 429.167969 C 599.59375 398.515625 614.671875 377.410156 641.695312 364.636719 C 665.429688 353.410156 689.46875 354.289062 712.753906 366.25 C 735.488281 377.941406 748.449219 396.738281 751.039062 422.25 C 751.777344 429.472656 751.511719 436.800781 751.53125 444.066406 C 751.570312 476.820312 751.53125 509.59375 751.570312 542.351562 C 751.570312 549.636719 751.671875 556.902344 751.898438 564.1875 C 752.777344 594.675781 773.328125 617.71875 801.144531 626.105469 C 819.980469 631.777344 839.183594 631.25 857.183594 622.617188 C 881.101562 611.125 895.734375 592.675781 896.878906 565.25 C 897.183594 557.984375 897.222656 550.699219 897.222656 543.410156 C 897.265625 510.65625 897.222656 477.882812 897.265625 445.125 C 897.265625 437.839844 897.082031 430.535156 897.796875 423.308594 C 900.570312 395.574219 914.878906 375.675781 940.285156 364.371094 C 967.246094 352.371094 993.632812 354.390625 1018.347656 370.65625 C 1037.855469 383.492188 1048.570312 401.820312 1049.304688 425.371094 C 1049.695312 438.105469 1049.488281 450.859375 1049.488281 463.59375 C 1049.488281 497.269531 1049.488281 530.941406 1049.488281 564.617188 Z M 1049.46875 564.675781 "/>
</svg>
