<?xml version="1.0" standalone="no"?>
<!DOCTYPE svg PUBLIC "-//W3C//DTD SVG 20010904//EN"
 "http://www.w3.org/TR/2001/REC-SVG-20010904/DTD/svg10.dtd">
<svg version="1.0" xmlns="http://www.w3.org/2000/svg"
 width="1000.000000pt" height="1000.000000pt" viewBox="0 0 1000.000000 1000.000000"
 preserveAspectRatio="xMidYMid meet">
<metadata>
Created by potrace 1.14, written by Peter Selinger 2001-2017
</metadata>
<g transform="translate(0.000000,1000.000000) scale(0.100000,-0.100000)"
fill="#000000" stroke="none">
<path d="M4655 9914 c-1202 -94 -2291 -592 -3134 -1435 -723 -723 -1198 -1635
-1371 -2634 -58 -335 -65 -425 -65 -855 0 -430 7 -520 65 -855 354 -2039 1966
-3651 4005 -4005 335 -58 425 -65 855 -65 430 0 520 7 855 65 2039 354 3651
1966 4005 4005 58 335 65 425 65 855 0 430 -7 520 -65 855 -354 2039 -1966
3652 -4005 4005 -313 54 -412 62 -800 65 -198 1 -382 1 -410 -1z"/>
</g>
</svg>
