<svg xmlns="http://www.w3.org/2000/svg" xmlns:xlink="http://www.w3.org/1999/xlink" width="2000" zoomAndPan="magnify" viewBox="0 0 1500 1499.999933" height="2000" preserveAspectRatio="xMidYMid meet" version="1.0"><defs><g/></defs><path fill="#ffffff" d="M 1049.46875 564.675781 C 1049.46875 602.902344 1049.46875 641.125 1049.46875 679.351562 C 1049.46875 685.71875 1049.285156 692.085938 1049.429688 698.453125 C 1050.082031 731.023438 1025.753906 758.1875 995.878906 765.960938 C 986.0625 768.515625 976.222656 769.515625 966.203125 770.042969 C 951.144531 770.859375 937.960938 776.574219 926.164062 785.757812 C 911.796875 796.941406 903.550781 811.65625 901.203125 829.65625 C 900.488281 835.066406 900.511719 840.574219 899.613281 845.941406 C 896.796875 862.757812 888.753906 876.71875 875.53125 887.535156 C 847.855469 910.167969 808.164062 913.023438 776.753906 890.003906 C 758.796875 876.839844 749.183594 858.71875 748.367188 836.472656 C 747.796875 821.023438 748.183594 805.535156 748.164062 790.066406 C 748.144531 760.941406 747.304688 731.800781 748.304688 702.699219 C 749.695312 662.617188 713.652344 633.390625 678.835938 633.289062 C 667.816406 633.25 657.121094 634.144531 646.734375 638.492188 C 620.9375 649.269531 605.816406 668.105469 602.59375 695.941406 C 601.753906 703.144531 601.9375 710.472656 601.9375 717.757812 C 601.878906 750.515625 601.9375 783.289062 601.898438 816.042969 C 601.898438 823.328125 601.898438 830.617188 601.632812 837.882812 C 600.570312 867.535156 584.816406 887.328125 558.632812 898.941406 C 531.570312 910.921875 505.121094 907.941406 480.671875 891.433594 C 462.265625 878.984375 451.550781 861.65625 451.039062 838.902344 C 450.835938 829.800781 450.835938 820.699219 450.816406 811.59375 C 450.796875 780.65625 450.816406 749.71875 450.816406 718.757812 C 450.816406 712.390625 451.039062 706.023438 450.898438 699.65625 C 450.0625 664.25 479.222656 638.554688 505.386719 633.25 C 516.0625 631.085938 526.980469 630.125 537.796875 628.738281 C 552.695312 626.839844 565.777344 620.960938 576.917969 610.921875 C 591.164062 598.105469 599.144531 582.1875 599.386719 562.941406 C 599.695312 538.371094 599.511719 513.800781 599.550781 489.226562 C 599.550781 469.207031 599.59375 449.1875 599.59375 429.167969 C 599.59375 398.515625 614.671875 377.410156 641.695312 364.636719 C 665.429688 353.410156 689.46875 354.289062 712.753906 366.25 C 735.488281 377.941406 748.449219 396.738281 751.039062 422.25 C 751.777344 429.472656 751.511719 436.800781 751.53125 444.066406 C 751.570312 476.820312 751.53125 509.59375 751.570312 542.351562 C 751.570312 549.636719 751.671875 556.902344 751.898438 564.1875 C 752.777344 594.675781 773.328125 617.71875 801.144531 626.105469 C 819.980469 631.777344 839.183594 631.25 857.183594 622.617188 C 881.101562 611.125 895.734375 592.675781 896.878906 565.25 C 897.183594 557.984375 897.222656 550.699219 897.222656 543.410156 C 897.265625 510.65625 897.222656 477.882812 897.265625 445.125 C 897.265625 437.839844 897.082031 430.535156 897.796875 423.308594 C 900.570312 395.574219 914.878906 375.675781 940.285156 364.371094 C 967.246094 352.371094 993.632812 354.390625 1018.347656 370.65625 C 1037.855469 383.492188 1048.570312 401.820312 1049.304688 425.371094 C 1049.695312 438.105469 1049.488281 450.859375 1049.488281 463.59375 C 1049.488281 497.269531 1049.488281 530.941406 1049.488281 564.617188 Z M 1049.46875 564.675781 " fill-opacity="1" fill-rule="nonzero"/><g fill="#ffffff" fill-opacity="1"><g transform="translate(501.696539, 1088.302734)"><g><path d="M 38.078125 1.3125 C 31.878906 1.3125 26.117188 -0.316406 20.796875 -3.578125 C 15.484375 -6.847656 11.242188 -11.289062 8.078125 -16.90625 C 4.910156 -22.53125 3.328125 -28.675781 3.328125 -35.34375 C 3.328125 -42.007812 4.910156 -48.15625 8.078125 -53.78125 C 11.242188 -59.40625 15.484375 -63.847656 20.796875 -67.109375 C 26.117188 -70.378906 31.878906 -72.015625 38.078125 -72.015625 C 43.734375 -72.015625 48.78125 -70.75 53.21875 -68.21875 C 57.664062 -65.695312 61.320312 -62.429688 64.1875 -58.421875 C 67.050781 -54.421875 69.019531 -50.128906 70.09375 -45.546875 L 55.046875 -45.546875 C 54.097656 -48.910156 52.144531 -51.835938 49.1875 -54.328125 C 46.226562 -56.828125 42.523438 -58.078125 38.078125 -58.078125 C 34.441406 -58.078125 31.070312 -57.082031 27.96875 -55.09375 C 24.875 -53.101562 22.398438 -50.375 20.546875 -46.90625 C 18.703125 -43.445312 17.78125 -39.59375 17.78125 -35.34375 C 17.78125 -31.101562 18.703125 -27.25 20.546875 -23.78125 C 22.398438 -20.3125 24.875 -17.582031 27.96875 -15.59375 C 31.070312 -13.613281 34.441406 -12.625 38.078125 -12.625 C 42.523438 -12.625 46.242188 -13.851562 49.234375 -16.3125 C 52.234375 -18.769531 54.335938 -21.679688 55.546875 -25.046875 L 70.59375 -25.046875 C 69.519531 -20.535156 67.550781 -16.273438 64.6875 -12.265625 C 61.820312 -8.265625 58.117188 -5 53.578125 -2.46875 C 49.035156 0.0507812 43.867188 1.3125 38.078125 1.3125 Z M 38.078125 1.3125 "/></g></g></g><g fill="#ffffff" fill-opacity="1"><g transform="translate(601.376516, 1088.302734)"><g><path d="M 66.15625 0 L 51 0 L 45.859375 -14.546875 L 19.1875 -14.546875 L 14.03125 0 L -0.609375 0 L 25.75 -70.703125 L 39.890625 -70.703125 Z M 41.109375 -27.875 L 32.515625 -52.71875 L 23.9375 -27.875 Z M 41.109375 -27.875 "/></g></g></g><g fill="#ffffff" fill-opacity="1"><g transform="translate(693.179101, 1088.302734)"><g><path d="M 7.0625 0 L 7.0625 -70.703125 L 30.5 -70.703125 C 36.832031 -70.703125 42.675781 -69.117188 48.03125 -65.953125 C 53.382812 -62.785156 57.625 -58.488281 60.75 -53.0625 C 63.882812 -47.644531 65.453125 -41.738281 65.453125 -35.34375 C 65.453125 -28.882812 63.867188 -22.960938 60.703125 -17.578125 C 57.535156 -12.191406 53.273438 -7.914062 47.921875 -4.75 C 42.566406 -1.582031 36.757812 0 30.5 0 Z M 30.5 -13.9375 C 34.132812 -13.9375 37.515625 -14.878906 40.640625 -16.765625 C 43.773438 -18.648438 46.285156 -21.222656 48.171875 -24.484375 C 50.054688 -27.753906 51 -31.375 51 -35.34375 C 51 -39.320312 50.054688 -42.941406 48.171875 -46.203125 C 46.285156 -49.472656 43.773438 -52.050781 40.640625 -53.9375 C 37.515625 -55.820312 34.132812 -56.765625 30.5 -56.765625 L 21.515625 -56.765625 L 21.515625 -13.9375 Z M 30.5 -13.9375 "/></g></g></g><g fill="#ffffff" fill-opacity="1"><g transform="translate(788.213452, 1088.302734)"><g><path d="M 7.0625 0 L 7.0625 -70.703125 L 30.5 -70.703125 C 36.832031 -70.703125 42.675781 -69.117188 48.03125 -65.953125 C 53.382812 -62.785156 57.625 -58.488281 60.75 -53.0625 C 63.882812 -47.644531 65.453125 -41.738281 65.453125 -35.34375 C 65.453125 -28.882812 63.867188 -22.960938 60.703125 -17.578125 C 57.535156 -12.191406 53.273438 -7.914062 47.921875 -4.75 C 42.566406 -1.582031 36.757812 0 30.5 0 Z M 30.5 -13.9375 C 34.132812 -13.9375 37.515625 -14.878906 40.640625 -16.765625 C 43.773438 -18.648438 46.285156 -21.222656 48.171875 -24.484375 C 50.054688 -27.753906 51 -31.375 51 -35.34375 C 51 -39.320312 50.054688 -42.941406 48.171875 -46.203125 C 46.285156 -49.472656 43.773438 -52.050781 40.640625 -53.9375 C 37.515625 -55.820312 34.132812 -56.765625 30.5 -56.765625 L 21.515625 -56.765625 L 21.515625 -13.9375 Z M 30.5 -13.9375 "/></g></g></g><g fill="#ffffff" fill-opacity="1"><g transform="translate(883.247791, 1088.302734)"><g><path d="M 21.515625 0 L 7.0625 0 L 7.0625 -70.703125 L 21.515625 -70.703125 Z M 21.515625 0 "/></g></g></g><g fill="#ffffff" fill-opacity="1"><g transform="translate(938.087234, 1088.302734)"><g><path d="M 21.515625 -29.390625 L 21.515625 -13.734375 L 56.453125 -13.734375 L 56.453125 0 L 7.0625 0 L 7.0625 -70.703125 L 55.453125 -70.703125 L 55.453125 -56.96875 L 21.515625 -56.96875 L 21.515625 -42.71875 L 51.609375 -42.71875 L 51.609375 -29.390625 Z M 21.515625 -29.390625 "/></g></g></g></svg>